Coordinates
version=1
nRows=11
nColumns=36
inDegrees=yes

Units are S.I. units (second, meters, Newtons, ...)
If the header above contains a line with 'inDegrees', this indicates whether rotational values are in degrees (yes) or radians (no).

endheader
time	pelvis_tilt	pelvis_list	pelvis_rotation	pelvis_tx	pelvis_ty	pelvis_tz	hip_flexion_r	hip_adduction_r	hip_rotation_r	knee_angle_r	knee_angle_r_beta	ankle_angle_r	subtalar_angle_r	mtp_angle_r	hip_flexion_l	hip_adduction_l	hip_rotation_l	knee_angle_l	knee_angle_l_beta	ankle_angle_l	subtalar_angle_l	mtp_angle_l	lumbar_extension	lumbar_bending	lumbar_rotation	arm_flex_r	arm_add_r	arm_rot_r	elbow_flex_r	pro_sup_r	arm_flex_l	arm_add_l	arm_rot_l	elbow_flex_l	pro_sup_l
     15.13333330	      7.60997634	      1.48599549	     -5.95087056	      0.40304310	      1.04298450	      0.77504824	    -14.21899920	     -3.79585003	      5.92263668	     32.66137687	      0.57004856	     17.53248022	    -13.12764260	     -7.49999987	     14.33924883	      2.14811452	     -0.91636379	     21.39573100	      0.37342595	     -1.10665624	    -10.07825594	     -7.49999987	    -19.31447518	     -3.82796713	      5.46066086	      8.59484823	    -16.47322322	      6.14554047	     39.65258330	     76.92452438	      5.11737473	     -9.60771200	     15.62629880	     15.47894345	     88.84650586
     15.15000000	      7.54259161	      1.88447537	     -6.29478880	      0.40357972	      1.04108668	      0.77381801	    -10.36139939	     -4.53917154	      5.66593608	     39.15377551	      0.68336230	     15.25076334	    -14.92741423	     -7.49999987	     12.96829833	      2.55972461	     -1.59489002	     20.96809945	      0.36596237	     -0.74940834	     -9.94688152	     -7.49999987	    -19.30448244	     -4.57723419	      5.70294801	      7.06219451	    -15.95557335	      4.43807384	     39.37760345	     78.82335452	      5.85443451	    -10.04220947	     17.39658983	     15.61281134	     88.40663099
     15.16666670	      7.49800174	      2.08244465	     -6.72260879	      0.40162266	      1.04085225	      0.77303006	     -6.46256818	     -4.99055559	      5.63335807	     44.97602396	      0.78497970	     12.97134776	    -16.69967711	     -7.49999987	     11.35629953	      2.84291961	     -2.08404944	     19.91887259	      0.34764991	     -0.67707990	    -10.23098530	     -7.49999987	    -19.60369339	     -5.12583799	      5.46438944	      5.99914817	    -15.65656764	      4.45307190	     39.55197685	     77.70482759	      5.85835334	    -10.66770343	     16.99643919	     17.39342559	     86.67289964
     15.18333330	      7.61250037	      1.87978954	     -7.11198766	      0.39808939	      1.04252005	      0.77197482	     -2.85261690	     -4.98712288	      5.45839837	     49.81643563	      0.86946082	     11.89089059	    -17.02862240	     -7.49999987	      9.55770345	      2.73207759	     -2.68801828	     18.82524402	      0.32856249	     -0.00260803	     -9.77226116	     -7.49999987	    -19.97438953	     -5.22466325	      5.33654199	      5.81631718	    -15.41892393	      4.74646494	     37.76909608	     77.71822334	      6.78777629	    -10.87998647	     17.24294354	     17.21637722	     86.35558664
     15.20000000	      7.47664645	      1.55268934	     -7.34146046	      0.39547899	      1.04459835	      0.77099075	      0.80206901	     -4.65041230	      5.22522206	     53.71530852	      0.93750899	     11.21284540	    -17.45527931	     -7.49999987	      7.97176375	      2.47137458	     -3.19368364	     17.67259255	      0.30844493	      0.55230243	     -9.38063113	     -7.49999987	    -20.09985535	     -5.18109201	      5.43150284	      5.14591168	    -15.46342485	      5.37420078	     36.56328852	     78.74339171	      8.04268310	    -11.26779761	     18.67777041	     17.14920890	     87.27259760
     15.21666670	      7.55482191	      1.07918472	     -7.47331431	      0.39473400	      1.04652583	      0.76956669	      3.90717153	     -4.16199377	      4.84362042	     56.78653363	      0.99111198	     11.21495713	    -17.08219950	     -7.49999987	      6.12181218	      2.15639050	     -3.33236063	     16.56419081	      0.28909967	      0.96243911	     -9.48657959	     -7.49999987	    -20.50197147	     -4.97352013	      5.50012419	      4.24494557	    -15.50270094	      5.08493783	     36.02115373	     79.40447972	      9.24928700	    -11.63242945	     19.17124582	     17.57057034	     87.84187281
     15.23333330	      7.56869405	      0.60355841	     -7.48010299	      0.39601734	      1.04688355	      0.76730428	      6.62817050	     -3.70664020	      4.26896728	     59.02814316	      1.03023545	     11.28861108	    -16.41434773	     -7.49999987	      4.42243674	      1.85155744	     -3.43173957	     15.65866995	      0.27329535	      1.64816021	     -9.36078214	     -7.49999987	    -20.87919835	     -4.69974484	      5.59972425	      2.98205487	    -15.67735419	      4.25184136	     35.84773337	     80.02783134	     10.51319444	    -12.02722908	     19.65550079	     18.17298461	     88.59417111
     15.25000000	      7.53853691	      0.15963377	     -7.41507708	      0.39805701	      1.04583367	      0.76469719	      8.86900626	     -3.32744883	      3.60688760	     60.43498563	      1.05478948	     11.32784764	    -15.41422740	     -7.49999987	      2.89630293	      1.65065363	     -3.27231312	     14.92577468	      0.26050391	      2.47725566	     -9.34156829	     -7.49999987	    -21.10590053	     -4.41350087	      6.32414016	      0.79372096	    -15.52804908	      1.22578175	     36.31979669	     82.45582269	     12.34879011	    -12.15393732	     20.94791315	     18.25429588	     90.73616238
     15.26666670	      7.42014193	     -0.21851714	     -7.33460227	      0.39938302	      1.04547307	      0.76281146	     10.72627378	     -2.99094562	      3.03529324	     61.03767838	      1.06530846	     10.97368062	    -14.47334505	     -7.49999987	      1.52694129	      1.54791331	     -3.07372513	     14.25937146	      0.24887298	      3.59422380	     -8.97299504	     -7.49999987	    -21.03388857	     -4.06304167	      6.07241786	     -0.18549829	    -15.51072622	      0.96584011	     35.25535381	     82.26553933	     13.22785364	    -12.53296630	     20.81101787	     19.02946432	     90.02317104
     15.28333330	      7.38247011	     -0.58288053	     -7.17261131	      0.39938277	      1.04745796	      0.76186190	     12.17975366	     -2.55571810	      2.58513392	     60.87695256	      1.06250326	     10.57001087	    -13.72751685	     -7.49999987	      0.09589161	      1.48257084	     -2.84611329	     13.59078908	      0.23720402	      4.91510385	     -8.39559931	     -7.49999987	    -21.08007614	     -3.68606261	      6.00331272	     -1.53162588	    -15.44011535	      0.21470926	     34.70359435	     82.12463780	     14.37955587	    -12.92178969	     21.16790034	     19.89284299	     89.45839824
     15.30000000	      7.23458800	     -0.84806716	     -6.88376148	      0.39909948	      1.04998555	      0.76112483	     13.67760026	     -2.09686719	      2.22192123	     60.02755965	      1.04767856	     10.40756172	    -13.03382694	     -7.49999987	     -1.26907943	      1.54358545	     -2.24850037	     12.80500910	      0.22348957	      5.85018754	     -8.63000552	     -7.49999987	    -20.88206118	     -3.32423212	      5.75278481	     -2.74286528	    -15.26798487	     -0.31765612	     33.75585000	     81.64762282	     15.49041404	    -13.35932693	     21.21974379	     20.93246314	     88.63481814
